<?xml version="1.0" encoding="utf-8"?>
<!-- Generator: Adobe Illustrator 27.0.1, SVG Export Plug-In . SVG Version: 6.00 Build 0)  -->
<svg version="1.1" id="Capa_1" xmlns="http://www.w3.org/2000/svg" xmlns:xlink="http://www.w3.org/1999/xlink" x="0px" y="0px"
	 viewBox="0 0 197 196" style="enable-background:new 0 0 197 196;" xml:space="preserve">
<style type="text/css">
	.st0{fill:url(#SVGID_1_);}
	.st1{opacity:0.6;fill:url(#SVGID_00000124142231124894738780000017360211760179077050_);}
	.st2{opacity:0.4;fill:url(#SVGID_00000086689977249637227910000007246654482199744138_);}
	.st3{opacity:0.2;fill:url(#SVGID_00000005247516664559673590000011616053783135227043_);}
	.st4{fill:url(#SVGID_00000065784798411739322390000003868063715955665314_);}
	.st5{fill:url(#SVGID_00000062180482084523164560000018005521402915845519_);}
	.st6{fill:url(#SVGID_00000109742728009326771310000001295783860831221898_);}
	.st7{fill:url(#SVGID_00000131339192187030936720000011893079474536859818_);}
	.st8{fill:url(#SVGID_00000108273998307231593800000001847528592110080154_);}
	.st9{fill:url(#SVGID_00000048468359125769432840000001143941505175874469_);}
	.st10{fill:url(#SVGID_00000177471110855728946150000009145730823118234506_);}
	.st11{fill:url(#SVGID_00000062152531443100299520000004792233733043770547_);}
	.st12{fill:url(#SVGID_00000067918224308626827910000003990754011029882527_);}
	.st13{fill:url(#SVGID_00000052074658628025658800000015358045264975342745_);}
	.st14{fill:url(#SVGID_00000024713202684136707980000003857281971536717441_);}
	.st15{fill:url(#SVGID_00000178900278467815965630000015888063034461800881_);}
</style>
<g>
	<g>
		<g>
			
				<radialGradient id="SVGID_1_" cx="122.7933" cy="29.1586" r="146.9457" gradientTransform="matrix(-1 0 0 -0.7305 245.5866 50.4585)" gradientUnits="userSpaceOnUse">
				<stop  offset="0" style="stop-color:#B6CCD2"/>
				<stop  offset="0.198" style="stop-color:#97B6BE"/>
				<stop  offset="1" style="stop-color:#5D87B4"/>
			</radialGradient>
			<path class="st0" d="M154.8,52.9c-2-29.4-26.5-52.6-56.3-52.6c-29.9,0-54.3,23.2-56.3,52.6c-22.3,1.1-40,19.5-40,42
				c0,23.2,18.8,42.1,42.1,42.1h108.5c23.2,0,42.1-18.8,42.1-42.1C194.8,72.4,177.1,54,154.8,52.9z"/>
			
				<radialGradient id="SVGID_00000046318245609790754120000006745406285341616787_" cx="1115.0148" cy="-1817.811" r="17.7286" gradientTransform="matrix(-0.8392 1.1536 -1.6186 -1.3126 -1889.2531 -3634.6194)" gradientUnits="userSpaceOnUse">
				<stop  offset="0" style="stop-color:#FFFFFF"/>
				<stop  offset="1" style="stop-color:#FFFFFF;stop-opacity:0"/>
			</radialGradient>
			<path style="opacity:0.6;fill:url(#SVGID_00000046318245609790754120000006745406285341616787_);" d="M102.5,58.2
				c-15.8-12.9-22-32.4-13.8-43.7c8.2-11.3,27.7-10,43.6,2.8c15.8,12.9,22,32.4,13.8,43.7C137.8,72.3,118.3,71,102.5,58.2z"/>
			
				<radialGradient id="SVGID_00000005245698051626525520000001451785072504740018_" cx="1116.2306" cy="-1849.0244" r="13.9324" gradientTransform="matrix(-0.8392 1.1536 -1.6186 -1.3126 -1889.2531 -3634.6194)" gradientUnits="userSpaceOnUse">
				<stop  offset="0" style="stop-color:#FFFFFF"/>
				<stop  offset="1" style="stop-color:#FFFFFF;stop-opacity:0"/>
			</radialGradient>
			<path style="opacity:0.4;fill:url(#SVGID_00000005245698051626525520000001451785072504740018_);" d="M155.1,96.2
				c-12.5-10.1-17.3-25.5-10.9-34.4c6.5-8.9,21.8-7.9,34.2,2.2c12.5,10.1,17.3,25.5,10.9,34.4C182.9,107.3,167.6,106.3,155.1,96.2z"
				/>
			
				<radialGradient id="SVGID_00000151501525462057567170000005041284454737690769_" cx="25.0437" cy="108.1127" r="10.1879" gradientTransform="matrix(0.901 -0.4338 1.2628 2.6229 -134.0421 -164.5946)" gradientUnits="userSpaceOnUse">
				<stop  offset="0" style="stop-color:#FFFFFF"/>
				<stop  offset="1" style="stop-color:#FFFFFF;stop-opacity:0"/>
			</radialGradient>
			<path style="opacity:0.2;fill:url(#SVGID_00000151501525462057567170000005041284454737690769_);" d="M32.3,97.6
				C23.1,83.2,12.4,76.3,8.4,82.2c-4,5.8,0.2,22.1,9.4,36.5c9.2,14.3,19.9,21.2,23.9,15.4C45.7,128.2,41.5,111.9,32.3,97.6z"/>
		</g>
	</g>
	<g>
		
			<radialGradient id="SVGID_00000165200426840944629590000000243803839124917907_" cx="-119.2665" cy="37.1841" r="20.6867" gradientTransform="matrix(0.866 0.5 -0.5 0.866 271.3858 189.9188)" gradientUnits="userSpaceOnUse">
			<stop  offset="0" style="stop-color:#D0F2FF"/>
			<stop  offset="0.198" style="stop-color:#D5F3FF"/>
			<stop  offset="1" style="stop-color:#85BCF1"/>
		</radialGradient>
		<path style="fill:url(#SVGID_00000165200426840944629590000000243803839124917907_);" d="M161,164.4c-2.4,4.1-7.6,5.5-11.7,3.1
			c-4.1-2.4-5.5-7.6-3.1-11.7c2.4-4.1,17.1-12.4,17.1-12.4S163.4,160.3,161,164.4z"/>
		
			<radialGradient id="SVGID_00000041269229620165649050000008477346542016924861_" cx="1218.4093" cy="-1725.2743" r="3.24" gradientTransform="matrix(-1.3036 0.5794 -0.7454 -1.946 452.9001 -3902.1914)" gradientUnits="userSpaceOnUse">
			<stop  offset="0" style="stop-color:#FFFFFF"/>
			<stop  offset="1" style="stop-color:#FFFFFF;stop-opacity:0"/>
		</radialGradient>
		<path style="fill:url(#SVGID_00000041269229620165649050000008477346542016924861_);" d="M146.4,163c-1.3-3.5-0.5-7.1,1.8-8.2
			c2.3-1,5.3,0.9,6.6,4.4c1.3,3.5,0.5,7.1-1.8,8.2C150.7,168.5,147.7,166.5,146.4,163z"/>
	</g>
	<g>
		
			<radialGradient id="SVGID_00000111156091989815776040000014376326182824049053_" cx="-127.3507" cy="70.943" r="20.6884" gradientTransform="matrix(0.866 0.5 -0.5 0.866 271.3853 189.9188)" gradientUnits="userSpaceOnUse">
			<stop  offset="0" style="stop-color:#D0F2FF"/>
			<stop  offset="0.198" style="stop-color:#D5F3FF"/>
			<stop  offset="1" style="stop-color:#85BCF1"/>
		</radialGradient>
		<path style="fill:url(#SVGID_00000111156091989815776040000014376326182824049053_);" d="M137.1,189.6c-2.4,4.1-7.6,5.5-11.7,3.1
			c-4.1-2.4-5.5-7.6-3.1-11.7c2.4-4.1,17.1-12.4,17.1-12.4S139.5,185.5,137.1,189.6z"/>
		
			<radialGradient id="SVGID_00000012446614060297503640000011280481346520032932_" cx="1240.3887" cy="-1731.6761" r="3.2405" gradientTransform="matrix(-1.3036 0.5794 -0.7454 -1.946 452.9001 -3902.1914)" gradientUnits="userSpaceOnUse">
			<stop  offset="0" style="stop-color:#FFFFFF"/>
			<stop  offset="1" style="stop-color:#FFFFFF;stop-opacity:0"/>
		</radialGradient>
		<path style="fill:url(#SVGID_00000012446614060297503640000011280481346520032932_);" d="M122.5,188.2c-1.3-3.5-0.5-7.1,1.8-8.2
			c2.3-1,5.3,0.9,6.6,4.4c1.3,3.5,0.5,7.1-1.8,8.2C126.8,193.7,123.8,191.7,122.5,188.2z"/>
	</g>
	<g>
		
			<radialGradient id="SVGID_00000136403745768094319820000008846299330076026026_" cx="-195.8802" cy="81.4184" r="20.6867" gradientTransform="matrix(0.866 0.5 -0.5 0.866 271.3858 189.9188)" gradientUnits="userSpaceOnUse">
			<stop  offset="0" style="stop-color:#D0F2FF"/>
			<stop  offset="0.198" style="stop-color:#D5F3FF"/>
			<stop  offset="1" style="stop-color:#85BCF1"/>
		</radialGradient>
		<path style="fill:url(#SVGID_00000136403745768094319820000008846299330076026026_);" d="M72.6,164.4c-2.4,4.1-7.6,5.5-11.7,3.1
			c-4.1-2.4-5.5-7.6-3.1-11.7c2.4-4.1,17.1-12.4,17.1-12.4S74.9,160.3,72.6,164.4z"/>
		
			<radialGradient id="SVGID_00000062896640822846749950000001453566733954152067_" cx="1276.3984" cy="-1708.0087" r="3.24" gradientTransform="matrix(-1.3036 0.5794 -0.7454 -1.946 452.9001 -3902.1914)" gradientUnits="userSpaceOnUse">
			<stop  offset="0" style="stop-color:#FFFFFF"/>
			<stop  offset="1" style="stop-color:#FFFFFF;stop-opacity:0"/>
		</radialGradient>
		<path style="fill:url(#SVGID_00000062896640822846749950000001453566733954152067_);" d="M57.9,163c-1.3-3.5-0.5-7.1,1.8-8.2
			c2.3-1,5.3,0.9,6.6,4.4c1.3,3.5,0.5,7.1-1.8,8.2C62.2,168.5,59.2,166.5,57.9,163z"/>
	</g>
	<g>
		
			<radialGradient id="SVGID_00000068639247397707551170000014772366121351675270_" cx="-203.9643" cy="115.1773" r="20.6884" gradientTransform="matrix(0.866 0.5 -0.5 0.866 271.3853 189.9188)" gradientUnits="userSpaceOnUse">
			<stop  offset="0" style="stop-color:#D0F2FF"/>
			<stop  offset="0.198" style="stop-color:#D5F3FF"/>
			<stop  offset="1" style="stop-color:#85BCF1"/>
		</radialGradient>
		<path style="fill:url(#SVGID_00000068639247397707551170000014772366121351675270_);" d="M48.7,189.6c-2.4,4.1-7.6,5.5-11.7,3.1
			c-4.1-2.4-5.5-7.6-3.1-11.7c2.4-4.1,17.1-12.4,17.1-12.4S51,185.5,48.7,189.6z"/>
		
			<radialGradient id="SVGID_00000057826318981852076900000008123314495231620268_" cx="1298.3779" cy="-1714.4105" r="3.2405" gradientTransform="matrix(-1.3036 0.5794 -0.7454 -1.946 452.9001 -3902.1914)" gradientUnits="userSpaceOnUse">
			<stop  offset="0" style="stop-color:#FFFFFF"/>
			<stop  offset="1" style="stop-color:#FFFFFF;stop-opacity:0"/>
		</radialGradient>
		<path style="fill:url(#SVGID_00000057826318981852076900000008123314495231620268_);" d="M34,188.2c-1.3-3.5-0.5-7.1,1.8-8.2
			c2.3-1,5.3,0.9,6.6,4.4c1.3,3.5,0.5,7.1-1.8,8.2C38.3,193.7,35.4,191.7,34,188.2z"/>
	</g>
	<g>
		
			<radialGradient id="SVGID_00000155112790978132296500000008205870726987545016_" cx="-157.0363" cy="58.6818" r="20.6867" gradientTransform="matrix(0.9327 0.3606 -0.3606 0.9327 272.4488 163.3301)" gradientUnits="userSpaceOnUse">
			<stop  offset="0" style="stop-color:#D0F2FF"/>
			<stop  offset="0.198" style="stop-color:#D5F3FF"/>
			<stop  offset="1" style="stop-color:#85BCF1"/>
		</radialGradient>
		<path style="fill:url(#SVGID_00000155112790978132296500000008205870726987545016_);" d="M116.5,161.6c-1.7,4.4-6.7,6.6-11.1,4.9
			c-4.4-1.7-6.6-6.7-4.9-11.1c1.7-4.4,15-14.8,15-14.8S118.2,157.2,116.5,161.6z"/>
		
			<radialGradient id="SVGID_00000098928566381716667360000013930710644501435524_" cx="1246.8287" cy="-1716.675" r="3.24" gradientTransform="matrix(-1.1988 0.7733 -1.0362 -1.808 -178.4859 -3907.907)" gradientUnits="userSpaceOnUse">
			<stop  offset="0" style="stop-color:#FFFFFF"/>
			<stop  offset="1" style="stop-color:#FFFFFF;stop-opacity:0"/>
		</radialGradient>
		<path style="fill:url(#SVGID_00000098928566381716667360000013930710644501435524_);" d="M101.8,162.4c-1.9-3.2-1.6-7,0.5-8.4
			c2.1-1.4,5.4,0.1,7.2,3.4c1.9,3.2,1.6,7-0.5,8.4C106.9,167.2,103.7,165.7,101.8,162.4z"/>
	</g>
	<g>
		
			<radialGradient id="SVGID_00000005949786842387932920000012099518342273520006_" cx="-165.1205" cy="92.4407" r="20.6884" gradientTransform="matrix(0.9327 0.3606 -0.3606 0.9327 272.4483 163.3302)" gradientUnits="userSpaceOnUse">
			<stop  offset="0" style="stop-color:#D0F2FF"/>
			<stop  offset="0.198" style="stop-color:#D5F3FF"/>
			<stop  offset="1" style="stop-color:#85BCF1"/>
		</radialGradient>
		<path style="fill:url(#SVGID_00000005949786842387932920000012099518342273520006_);" d="M96.8,190.2c-1.7,4.4-6.7,6.6-11.1,4.9
			c-4.4-1.7-6.6-6.7-4.9-11.1c1.7-4.4,15-14.8,15-14.8S98.5,185.7,96.8,190.2z"/>
		
			<radialGradient id="SVGID_00000017491905320456062140000004356991128387965607_" cx="1268.8081" cy="-1723.0769" r="3.2405" gradientTransform="matrix(-1.1988 0.7733 -1.0362 -1.808 -178.4859 -3907.907)" gradientUnits="userSpaceOnUse">
			<stop  offset="0" style="stop-color:#FFFFFF"/>
			<stop  offset="1" style="stop-color:#FFFFFF;stop-opacity:0"/>
		</radialGradient>
		<path style="fill:url(#SVGID_00000017491905320456062140000004356991128387965607_);" d="M82.1,191c-1.9-3.2-1.6-7,0.5-8.4
			c2.1-1.4,5.4,0.1,7.2,3.4c1.9,3.2,1.6,7-0.5,8.4C87.2,195.7,83.9,194.2,82.1,191z"/>
	</g>
</g>
</svg>
